<svg width="428" height="512" viewBox="0 0 428 512" fill="none" xmlns="http://www.w3.org/2000/svg">
<path d="M406 85.333H339.867C329.66 35.703 286.002 0.064 235.333 0H192.666C141.997 0.064 98.339 35.703 88.133 85.333H22C10.218 85.333 0.666992 94.884 0.666992 106.666C0.666992 118.448 10.218 128 22 128H43.333V405.333C43.404 464.214 91.119 511.93 150 512H278C336.881 511.93 384.596 464.214 384.667 405.333V128H406C417.782 128 427.333 118.449 427.333 106.667C427.333 94.885 417.782 85.333 406 85.333ZM192.667 362.667C192.667 374.449 183.116 384 171.334 384C159.551 384 150 374.449 150 362.667V234.667C150 222.885 159.551 213.334 171.333 213.334C183.115 213.334 192.666 222.885 192.666 234.667V362.667H192.667ZM278 362.667C278 374.449 268.449 384 256.667 384C244.885 384 235.334 374.449 235.334 362.667V234.667C235.334 222.885 244.885 213.334 256.667 213.334C268.449 213.334 278 222.885 278 234.667V362.667ZM132.315 85.333C141.389 59.782 165.553 42.699 192.667 42.666H235.334C262.448 42.699 286.612 59.782 295.686 85.333H132.315Z" fill="#1E2026"/>
</svg>
